<svg width="29" height="20" viewBox="0 0 29 20" fill="none" xmlns="http://www.w3.org/2000/svg">
<path d="M28.1945 3.01368C28.0315 2.43209 27.7139 1.90554 27.2755 1.49002C26.8247 1.06172 26.2723 0.755347 25.6703 0.599818C23.4172 0.00594922 14.3904 0.00594935 14.3904 0.00594935C10.6272 -0.036866 6.86494 0.151447 3.12485 0.569824C2.52281 0.736843 1.97138 1.05006 1.5196 1.48162C1.0757 1.90873 0.754174 2.43541 0.586211 3.01248C0.182732 5.1861 -0.013306 7.39313 0.000740456 9.60383C-0.0136564 11.8125 0.1819 14.0189 0.586211 16.1952C0.750575 16.7698 1.0709 17.2941 1.51601 17.7176C1.96111 18.1411 2.51538 18.4471 3.12485 18.609C5.40794 19.2017 14.3904 19.2017 14.3904 19.2017C18.1583 19.2446 21.9254 19.0563 25.6703 18.6378C26.2723 18.4823 26.8247 18.1759 27.2755 17.7476C27.7194 17.3241 28.0349 16.7974 28.1933 16.224C28.6073 14.0512 28.8086 11.8432 28.7944 9.63142C28.8255 7.41024 28.6245 5.19188 28.1945 3.01248V3.01368ZM11.5206 13.7117V5.49713L19.0309 9.60503L11.5206 13.7117Z" fill="white"/>
</svg>
